<?xml version="1.0" encoding="UTF-8" standalone="no"?>
<svg
   id="logo-gi"
   class="logo-goethe-institut"
   width="69px"
   height="32px"
   viewBox="0 0 69 32"
   data-name="logo"
   version="1.1"
   sodipodi:docname="Gothe.svg"
   inkscape:version="1.1-dev (b39e6d56, 2020-09-19)"
   xmlns:inkscape="http://www.inkscape.org/namespaces/inkscape"
   xmlns:sodipodi="http://sodipodi.sourceforge.net/DTD/sodipodi-0.dtd"
   xmlns="http://www.w3.org/2000/svg"
   xmlns:svg="http://www.w3.org/2000/svg">
  <defs
     id="defs844" />
  <sodipodi:namedview
     pagecolor="#ffffff"
     bordercolor="#666666"
     borderopacity="1"
     objecttolerance="10"
     gridtolerance="10"
     guidetolerance="10"
     inkscape:pageopacity="0"
     inkscape:pageshadow="2"
     inkscape:window-width="2560"
     inkscape:window-height="1387"
     id="namedview842"
     showgrid="false"
     inkscape:zoom="15.913043"
     inkscape:cx="26.456284"
     inkscape:cy="7.2581967"
     inkscape:window-x="0"
     inkscape:window-y="25"
     inkscape:window-maximized="1"
     inkscape:current-layer="logo-gi" />
  <path
     d="M39.4 13.725c-2 0-3.042-1.095-3.042-3.168 0-2.05 1.102-3.177 3.102-3.177a5.26 5.26 0 0 1 1.586.25l-.108.888c-.454-.143-.926-.217-1.402-.22-1.364 0-2 .713-2 2.243 0 1.504.616 2.267 1.83 2.267a3.92 3.92 0 0 0 .57-.035l.113-.018V11h-.872v-.882h1.98v3.31c-.563.204-1.157.308-1.756.308zm22.22-.126v-2.703h-2.25V13.6h-1.144V7.482h1.144v2.5h2.25v-2.5h1.144V13.6h-1.144zm-6.9 0V8.407h-1.375v-.925h3.912v.925H55.87V13.6h-1.16zm-5.932 0V7.482h3.777v.915H49.92V10h2.234v.903H49.92v1.78h2.72v.915h-3.866zm15.548 0V7.482H68.1v.915h-2.632V10h2.235v.903h-2.235v1.78h2.72v.915h-3.865zM49.85 21.88v-5.01h-1.26v-.885h3.63v.885h-1.26v5.01H49.85zm-13.037-5.896h1.126v5.896h-1.126v-5.896zm24.93 6.002c-1.414 0-2.13-.698-2.13-2.075v-3.926h1.114v3.877c0 .813.334 1.208 1.02 1.208s1.01-.384 1.01-1.208v-3.877h1.1v3.926c0 1.377-.71 2.076-2.114 2.076zm-15.46 0c-.55.007-1.1-.124-1.575-.38l.136-.867c.42.24.896.372 1.38.38.59 0 .927-.295.927-.81 0-.536-.47-.746-1.014-1-.63-.283-1.416-.635-1.416-1.692 0-1.09.714-1.742 1.91-1.742.447-.008.9.08 1.3.26l-.117.85a2.77 2.77 0 0 0-1.069-.227c-.773 0-.935.4-.935.736 0 .453.435.644.938.865.665.292 1.492.656 1.492 1.793s-.732 1.823-1.96 1.823zm-3.747-.106l-1.827-3.47-.224.055v3.414h-.998v-5.896h1.04l1.828 3.47.223-.055v-3.414h1v5.896h-1.04zm23.415 0v-5.01h-1.26v-.885h3.63v.885h-1.26v5.01H65.95zm-12.836-5.896h1.126v5.896h-1.126v-5.896zm3.28 5.896v-5.01h-1.26v-.885h3.63v.885h-1.258v5.01h-1.113zM10.315 16a5.74 5.74 0 0 1 5.742-5.742v1.067c-2.582 0-4.675 2.093-4.675 4.675s2.093 4.675 4.675 4.675 4.675-2.093 4.675-4.675H21.8c0 3.17-2.57 5.742-5.742 5.742S10.315 19.17 10.315 16zM5.2 16A10.86 10.86 0 0 1 16.057 5.143V6.2A9.79 9.79 0 0 0 6.268 16a9.79 9.79 0 0 0 19.58 0h1.067c0 3.88-2.07 7.463-5.428 9.402s-7.498 1.94-10.857 0S5.2 19.88 5.2 16zm2.562 0c0-4.58 3.714-8.294 8.294-8.294v1.067a7.23 7.23 0 0 0-5.111 12.337A7.23 7.23 0 0 0 23.284 16h1.067c-.04 4.552-3.742 8.222-8.294 8.222S7.803 20.552 7.763 16zm24.294 0c0 8.837-7.163 16-16 16s-16-7.163-16-16 7.163-16 16-16v1.067C7.8 1.067 1.124 7.753 1.124 16S7.8 30.933 16.057 30.933 30.99 24.247 30.99 16h1.067zM2.623 16c0-7.42 6.015-13.435 13.435-13.435v1.067A12.37 12.37 0 0 0 3.69 16a12.37 12.37 0 0 0 12.368 12.368A12.37 12.37 0 0 0 28.425 16h1.067c0 7.42-6.015 13.435-13.435 13.435S2.623 23.42 2.623 16zm42.317-2.215c-1.746 0-2.56-1.032-2.56-3.248 0-2.2.813-3.24 2.56-3.24s2.56 1.03 2.56 3.24c0 2.247-.8 3.248-2.56 3.248zm0-5.576c-1.215 0-1.382 1.12-1.382 2.327 0 2.06.668 2.344 1.39 2.344 1.207 0 1.374-1.127 1.374-2.344 0-1.675-.388-2.327-1.383-2.327zM26.222 1.092a4.75 4.75 0 0 0-4.743 4.743c0 1.918 1.156 3.648 2.928 4.382s3.812.328 5.17-1.028 1.762-3.397 1.028-5.17-2.464-2.928-4.382-2.928zm0-1.092c3.223 0 5.835 2.613 5.835 5.836 0 2.36-1.422 4.488-3.602 5.39s-4.69.404-6.36-1.265-2.168-4.18-1.265-6.36S23.862 0 26.222 0z"
     id="path839"
     style="fill:#aad400" />
</svg>
