<?xml version="1.0" encoding="UTF-8" standalone="no"?>
<svg
   width="293.46329"
   height="74"
   viewBox="0 0 293.46329 74"
   fill="none"
   version="1.1"
   id="svg111"
   sodipodi:docname="Logo_mgme_dark_blue.svg"
   inkscape:version="1.3.2 (091e20e, 2023-11-25)"
   xmlns:inkscape="http://www.inkscape.org/namespaces/inkscape"
   xmlns:sodipodi="http://sodipodi.sourceforge.net/DTD/sodipodi-0.dtd"
   xmlns="http://www.w3.org/2000/svg"
   xmlns:svg="http://www.w3.org/2000/svg">
  <defs
     id="defs111" />
  <sodipodi:namedview
     id="namedview111"
     pagecolor="#ffffff"
     bordercolor="#666666"
     borderopacity="1.0"
     inkscape:showpageshadow="2"
     inkscape:pageopacity="0.0"
     inkscape:pagecheckerboard="0"
     inkscape:deskcolor="#d1d1d1"
     showguides="false"
     inkscape:zoom="2.4070175"
     inkscape:cx="142.29228"
     inkscape:cy="34.89796"
     inkscape:window-width="1600"
     inkscape:window-height="761"
     inkscape:window-x="0"
     inkscape:window-y="30"
     inkscape:window-maximized="0"
     inkscape:current-layer="svg111" />
  <rect
     style="fill:#1f3d7b;fill-opacity:1;stroke-width:1.96287;stroke-miterlimit:4.5"
     id="rect111"
     width="293.46329"
     height="74"
     x="0"
     y="0" />
  <g
     id="g1"
     transform="translate(4.2321437,1.9987452)">
    <g
       opacity="0.45"
       id="g49">
      <path
         d="m 24.1672,9.38701 -2.916,-7.054 -1.009,0.419 3.012,7.29399 c 0.3,-0.22599 0.6,-0.44599 0.906,-0.65899 z"
         fill="#ffffff"
         id="path1" />
      <path
         d="m 21.5672,11.4449 -4.172,-7.29402 -0.947,0.542 4.3,7.52702 c 0.268,-0.261 0.535,-0.521 0.817,-0.769 z"
         fill="#ffffff"
         id="path2" />
      <path
         d="m 30.4659,6.23797 -0.796,-6.017999 -1.084,0.144 0.83,6.250999 c 0.35,-0.13 0.7,-0.261 1.05,-0.377 z"
         fill="#ffffff"
         id="path3" />
      <path
         d="m 19.3429,13.7309 -5.51,-7.32196 -0.871,0.66 5.668,7.53396 c 0.233,-0.3 0.467,-0.583 0.714,-0.865 z"
         fill="#ffffff"
         id="path4" />
      <path
         d="m 27.138,7.62403 -1.777,-6.615 -1.05,0.281 1.846,6.855 c 0.323,-0.185 0.652,-0.357 0.988,-0.521 z"
         fill="#ffffff"
         id="path5" />
      <path
         d="m 13.4769,26.8451 -11.86402,-3.609 -0.316,1.043 12.06302,3.671 c 0.034,-0.371 0.075,-0.741 0.117,-1.105 z"
         fill="#ffffff"
         id="path6" />
      <path
         d="M 34.1169,5.311 V 0 h -1.091 v 5.531 c 0.364,-0.082 0.727,-0.151 1.091,-0.213 z"
         fill="#ffffff"
         id="path7" />
      <path
         d="m 13.9851,24.113 -10.79398,-4.872 -0.446,0.995 10.99998,4.968 c 0.075,-0.364 0.158,-0.727 0.24,-1.084 z"
         fill="#ffffff"
         id="path8" />
      <path
         d="m 15.974,18.7499 -8.25496,-6.622 -0.679,0.851 8.45396,6.779 c 0.151,-0.343 0.316,-0.679 0.48,-1.009 z"
         fill="#ffffff"
         id="path9" />
      <path
         d="m 14.8079,21.4081 -9.56505,-5.881 -0.57,0.926 9.77805,6 c 0.117,-0.357 0.233,-0.707 0.364,-1.057 z"
         fill="#ffffff"
         id="path10" />
      <path
         d="m 17.4768,16.1869 -6.875,-7.09999 -0.78198,0.755 7.06098,7.28699 c 0.192,-0.323 0.4,-0.631 0.6,-0.947 z"
         fill="#ffffff"
         id="path11" />
      <path
         d="m 13.2571,30.1211 c 0,-0.178 0.007,-0.357 0.014,-0.535 l -12.722006,-2.121 -0.178,1.077 12.900006,2.148 c 0,-0.192 -0.014,-0.377 -0.014,-0.569 z"
         fill="#ffffff"
         id="path12" />
      <path
         d="m 62.1062,21.28 2.3,-1.036 -0.446,-0.995 -2.259,1.016 c 0.144,0.336 0.274,0.672 0.405,1.015 z"
         fill="#ffffff"
         id="path13" />
      <path
         d="m 60.432,17.7101 2.045,-1.256 -0.57,-0.926 -2.031,1.249 c 0.192,0.309 0.377,0.617 0.556,0.933 z"
         fill="#ffffff"
         id="path14" />
      <path
         d="m 58.2428,14.4689 1.866,-1.5 -0.679,-0.851 -1.88,1.514 c 0.24,0.274 0.467,0.555 0.693,0.837 z"
         fill="#ffffff"
         id="path15" />
      <path
         d="m 63.207,25.091 2.649,-0.81 -0.319,-1.043 -2.58,0.782 c 0.089,0.35 0.172,0.707 0.24,1.064 z"
         fill="#ffffff"
         id="path16" />
      <path
         d="m 63.6838,29.0581 3.1,-0.515 -0.179,-1.077 -2.992,0.5 c 0.027,0.364 0.055,0.727 0.069,1.091 z"
         fill="#ffffff"
         id="path17" />
      <path
         d="m 63.5332,33.0801 3.623,-0.117 -0.034,-1.091 -3.479,0.117 c -0.027,0.364 -0.062,0.734 -0.1,1.1 z"
         fill="#ffffff"
         id="path18" />
      <path
         d="m 37.9481,4.94097 0.615,-4.576999 -1.084,-0.144 -0.631,4.768999 c 0.364,-0.021 0.734,-0.034 1.1,-0.048 z"
         fill="#ffffff"
         id="path19" />
      <path
         d="m 55.6012,11.631 1.736,-1.79104 -0.782,-0.755 -1.77,1.82504 c 0.273,0.235 0.548,0.474 0.816,0.721 z"
         fill="#ffffff"
         id="path20" />
      <path
         d="m 41.8021,5.15411 1.036,-3.856 -1.054,-0.282 -1.08,4.02 c 0.371,0.034 0.734,0.075 1.1,0.124 z"
         fill="#ffffff"
         id="path21" />
      <path
         d="m 45.583,5.94901 1.324,-3.2 -1.009,-0.416 -1.379,3.328 c 0.357,0.089 0.707,0.185 1.064,0.288 z"
         fill="#ffffff"
         id="path22" />
      <path
         d="m 49.1988,7.31502 1.5,-2.628 -0.942,-0.542 -1.56,2.724 c 0.336,0.144 0.672,0.288 1.002,0.446 z"
         fill="#ffffff"
         id="path23" />
      <path
         d="m 52.5611,9.2221 1.626,-2.161 -0.871,-0.659 -1.674,2.223 c 0.309,0.192 0.618,0.384 0.919,0.59 z"
         fill="#ffffff"
         id="path24" />
      <path
         d="m 20.5848,47.8501 -9.243,10.807 0.83,0.707 9.2,-10.759 c -0.268,-0.247 -0.528,-0.5 -0.789,-0.755 z"
         fill="#ffffff"
         id="path25" />
      <path
         d="m 46.42,54.012 5.15,7.833 0.913,-0.6 -5.009,-7.6 c -0.35,0.13 -0.7,0.261 -1.057,0.377 z"
         fill="#ffffff"
         id="path26" />
      <path
         d="m 52.2321,51.2271 5.8,5.284 0.734,-0.81 -5.615,-5.112 c -0.3,0.22 -0.611,0.432 -0.926,0.631 z"
         fill="#ffffff"
         id="path27" />
      <path
         d="m 43.4079,54.808 4.443,9.071 0.981,-0.48 -4.333,-8.838 c -0.364,0.089 -0.727,0.172 -1.1,0.247 z"
         fill="#ffffff"
         id="path28" />
      <path
         d="m 49.3838,52.8249 5.592,6.539 0.83,-0.707 -5.421,-6.34 c -0.329,0.178 -0.658,0.35 -1.001,0.508 z"
         fill="#ffffff"
         id="path29" />
      <path
         d="m 38.4798,55.298 c -0.364,0 -0.72,-0.014 -1.077,-0.027 l 2.251,11.246 1.07,-0.213 -2.203,-11.006 z"
         fill="#ffffff"
         id="path30" />
      <path
         d="m 40.3882,55.2199 3.479,10.238 1.036,-0.35 -3.4,-10 c -0.367,0.043 -0.738,0.084 -1.115,0.112 z"
         fill="#ffffff"
         id="path31" />
      <path
         d="m 34.4668,54.9731 0.8,12.049 1.091,-0.075 -0.782,-11.83 c -0.371,-0.041 -0.741,-0.089 -1.1,-0.151 z"
         fill="#ffffff"
         id="path32" />
      <path
         d="m 62.751,36.9959 4.186,0.419 0.11,-1.084 -4.014,-0.4 c -0.082,0.357 -0.178,0.714 -0.274,1.064 z"
         fill="#ffffff"
         id="path33" />
      <path
         d="m 61.4058,40.631 4.735,1.112 0.247,-1.064 -4.543,-1.064 c -0.137,0.343 -0.288,0.679 -0.439,1.016 z"
         fill="#ffffff"
         id="path34" />
      <path
         d="m 54.9351,49.207 5.784,4.076 0.631,-0.892 -5.575,-3.932 c -0.274,0.254 -0.549,0.508 -0.83,0.748 z"
         fill="#ffffff"
         id="path35" />
      <path
         d="m 57.4121,46.7551 5.579,2.959 0.508,-0.961 -5.367,-2.849 c -0.233,0.288 -0.473,0.576 -0.72,0.851 z"
         fill="#ffffff"
         id="path36" />
      <path
         d="m 59.6011,43.8921 5.215,1.962 0.384,-1.022 -5.009,-1.887 c -0.192,0.323 -0.384,0.631 -0.59,0.94 z"
         fill="#ffffff"
         id="path37" />
      <path
         d="m 24.3931,51 -6.086,12.406 0.981,0.48 6.031,-12.289 c -0.309,-0.192 -0.618,-0.391 -0.926,-0.59 z"
         fill="#ffffff"
         id="path38" />
      <path
         d="m 15.2131,39.845 -13.25705,4.989 0.384,1.022 13.31905,-5.016 c -0.158,-0.329 -0.309,-0.659 -0.446,-0.995 z"
         fill="#ffffff"
         id="path39" />
      <path
         d="m 17.5252,44.131 -11.72002,8.255 0.631,0.892 11.72002,-8.262 c -0.213,-0.3 -0.425,-0.59 -0.631,-0.892 z"
         fill="#ffffff"
         id="path40" />
      <path
         d="m 16.2689,42.0569 -12.619,6.697 0.508,0.961 12.653,-6.711 c -0.181,-0.309 -0.371,-0.627 -0.542,-0.947 z"
         fill="#ffffff"
         id="path41" />
      <path
         d="m 31.6261,54.3479 -0.837,12.612 1.091,0.075 0.823,-12.406 c -0.364,-0.082 -0.72,-0.178 -1.077,-0.274 z"
         fill="#ffffff"
         id="path42" />
      <path
         d="m 13.7309,34.9761 -13.621037,1.36 0.11,1.084 13.744037,-1.365 c -0.082,-0.357 -0.165,-0.714 -0.233,-1.07 z"
         fill="#ffffff"
         id="path43" />
      <path
         d="M 14.3522,37.489 0.762207,40.679 1.00921,41.743 14.6982,38.532 c -0.124,-0.343 -0.24,-0.686 -0.343,-1.036 z"
         fill="#ffffff"
         id="path44" />
      <path
         d="m 28.9978,53.4499 -2.573,12.852 1.07,0.213 2.539,-12.674 c -0.35,-0.124 -0.693,-0.254 -1.036,-0.4 z"
         fill="#ffffff"
         id="path45" />
      <path
         d="m 26.5961,52.3169 -4.35,12.783 1.036,0.35 4.3,-12.632 c -0.329,-0.158 -0.659,-0.329 -0.981,-0.5 z"
         fill="#ffffff"
         id="path46" />
      <path
         d="M 13.36,32.304 0.034,31.865 0,32.956 13.477,33.402 c -0.049,-0.364 -0.09,-0.727 -0.117,-1.098 z"
         fill="#ffffff"
         id="path47" />
      <path
         d="m 22.3941,49.5039 -7.73,11.74 0.913,0.6 7.678,-11.658 c -0.288,-0.22 -0.576,-0.446 -0.858,-0.679 z"
         fill="#ffffff"
         id="path48" />
      <path
         d="m 18.9679,46.0681 -10.58997,9.641 0.734,0.81 10.55597,-9.621 c -0.24,-0.274 -0.48,-0.549 -0.714,-0.83 z"
         fill="#ffffff"
         id="path49" />
    </g>
    <path
       d="m 30.2119,23.2341 c 0.345,-0.1113 0.6954,-0.2051 1.05,-0.281 L 27.1399,7.63013 c -0.336,0.172 -0.666,0.343 -0.988,0.521 z"
       fill="#ffffff"
       id="path50" />
    <path
       d="m 35.88,22.9521 c 0.3546,0.0758 0.705,0.1696 1.05,0.281 L 41.793,5.15305 c -0.364,-0.048 -0.727,-0.089 -1.1,-0.124 l -4.82,17.91605 z"
       fill="#ffffff"
       id="path51" />
    <path
       d="m 28.9287,23.7491 c 0.3291,-0.1566 0.6658,-0.2965 1.009,-0.419 L 24.1667,9.38013 c -0.3086,0.21266 -0.6106,0.43233 -0.906,0.65897 z"
       fill="#ffffff"
       id="path52" />
    <path
       d="m 23.035,30.932 c 0.0877,-0.3527 0.1931,-0.7009 0.316,-1.043 L 13.47,26.884 c -0.048,0.364 -0.089,0.734 -0.117,1.1 z"
       fill="#ffffff"
       id="path53" />
    <path
       d="m 34.4868,22.746 c 0.3638,0.0273 0.7257,0.0754 1.084,0.144 l 2.388,-17.94298 c -0.371,0.007 -0.741,0.021 -1.1,0.048 l -2.36,17.75798 z"
       fill="#ffffff"
       id="path54" />
    <path
       d="m 27.728,24.414 c 0.309,-0.192 0.624,-0.377 0.947,-0.542 L 21.567,11.438 c -0.274,0.254 -0.549,0.508 -0.817,0.769 l 6.972,12.2 z"
       fill="#ffffff"
       id="path55" />
    <path
       d="m 24.0228,28.366 c 0.1713,-0.3199 0.3617,-0.6291 0.57,-0.926 l -9.785,-6.011 c -0.13,0.35 -0.247,0.7 -0.364,1.057 l 9.579,5.887 z"
       fill="#ffffff"
       id="path56" />
    <path
       d="m 23.4527,29.6149 c 0.1304,-0.3395 0.2793,-0.6717 0.446,-0.995 l -9.915,-4.481 c -0.089,0.357 -0.172,0.72 -0.24,1.084 l 9.709,4.385 z"
       fill="#ffffff"
       id="path57" />
    <path
       d="m 24.7637,27.2139 c 0.213,-0.3 0.439,-0.576 0.679,-0.851 l -9.469,-7.6 c -0.172,0.329 -0.329,0.666 -0.48,1.009 l 9.27,7.438 z"
       fill="#ffffff"
       id="path58" />
    <path
       d="m 25.6359,26.164 c 0.2469,-0.2677 0.508,-0.5221 0.782,-0.762 l -8.938,-9.215 c -0.206,0.309 -0.412,0.624 -0.6,0.947 z"
       fill="#ffffff"
       id="path59" />
    <path
       d="m 26.6169,25.22 c 0.281,-0.233 0.57,-0.453 0.871,-0.659 L 19.3439,13.73 c -0.24,0.281 -0.48,0.57 -0.714,0.865 l 7.987,10.615 z"
       fill="#ffffff"
       id="path60" />
    <path
       d="M 34.1169,22.726 V 5.31104 c -0.364,0.062 -0.727,0.137 -1.091,0.213 V 22.724 c 0.185,-0.007 0.364,-0.027 0.549,-0.027 0.185,0 0.364,0.021 0.542,0.027 z"
       fill="#ffffff"
       id="path61" />
    <path
       d="m 43.7988,29.8901 c 0.1229,0.3421 0.2284,0.6902 0.316,1.043 l 19.089,-5.812 c -0.075,-0.357 -0.158,-0.714 -0.24,-1.064 z"
       fill="#ffffff"
       id="path62" />
    <path
       d="m 63.6868,29.093 c -0.014,-0.364 -0.041,-0.734 -0.069,-1.091 l -19.421,3.233 c 0.075,0.35 0.137,0.714 0.178,1.077 l 19.312,-3.211 z"
       fill="#ffffff"
       id="path63" />
    <path
       d="m 43.2497,28.6201 c 0.1667,0.3233 0.3155,0.6554 0.446,0.995 l 18.41,-8.31 c -0.13,-0.343 -0.261,-0.679 -0.4,-1.016 l -18.463,8.331 z"
       fill="#ffffff"
       id="path64" />
    <path
       d="m 22.9598,31.2351 -9.689,-1.613 c 0,0.178 -0.014,0.357 -0.014,0.535 0,0.178 0.007,0.377 0.014,0.57 l 9.51,1.585 c 0.041,-0.36 0.103,-0.721 0.179,-1.077 z"
       fill="#ffffff"
       id="path65" />
    <path
       d="m 26.1158,41.4721 -5.524,6.457 c 0.254,0.261 0.521,0.508 0.789,0.755 l 5.565,-6.512 c -0.288,-0.22 -0.563,-0.46 -0.83,-0.707 z"
       fill="#ffffff"
       id="path66" />
    <path
       d="m 36.257,44.1 c -0.35,0.089 -0.707,0.158 -1.07,0.213 l 2.209,11.034 c 0.357,0.014 0.72,0.027 1.077,0.027 h 0.041 L 36.257,44.093 Z"
       fill="#ffffff"
       id="path67" />
    <path
       d="m 37.2109,23.336 c 0.3432,0.1225 0.68,0.2623 1.009,0.419 l 7.361,-17.80001 c -0.35,-0.1 -0.707,-0.2 -1.064,-0.288 L 37.2109,23.343 Z"
       fill="#ffffff"
       id="path68" />
    <path
       d="m 38.4736,23.8709 c 0.3246,0.1647 0.6407,0.3456 0.947,0.542 l 9.778,-17.09996 c -0.329,-0.158 -0.666,-0.3 -1,-0.446 z"
       fill="#ffffff"
       id="path69" />
    <path
       d="m 42.5566,27.4401 c 0.2054,0.2989 0.3957,0.608 0.57,0.926 l 17.31,-10.636 c -0.178,-0.316 -0.364,-0.631 -0.556,-0.933 z"
       fill="#ffffff"
       id="path70" />
    <path
       d="m 39.6606,24.5581 c 0.3,0.206 0.59,0.425 0.871,0.659 L 52.5676,9.22208 c -0.3,-0.206 -0.611,-0.4 -0.919,-0.59 L 39.6676,24.5581 Z"
       fill="#ffffff"
       id="path71" />
    <path
       d="m 41.7061,26.37 c 0.24,0.274 0.467,0.556 0.679,0.851 l 15.858,-12.729 c -0.226,-0.281 -0.46,-0.563 -0.693,-0.837 z"
       fill="#ffffff"
       id="path72" />
    <path
       d="m 40.7378,25.407 c 0.274,0.2399 0.5351,0.4943 0.782,0.762 l 14.081,-14.532 c -0.268,-0.247 -0.542,-0.487 -0.817,-0.72 z"
       fill="#ffffff"
       id="path73" />
    <path
       d="m 31.5839,22.8911 c 0.3582,-0.0691 0.7201,-0.1172 1.084,-0.144 L 30.4729,6.23706 c -0.357,0.117 -0.707,0.24 -1.05,0.377 z"
       fill="#ffffff"
       id="path74" />
    <path
       d="m 39.9838,42.351 c -0.3,0.213 -0.6,0.412 -0.913,0.6 l 7.342,11.15 c 0.357,-0.117 0.707,-0.24 1.057,-0.377 l -7.493,-11.38 z"
       fill="#ffffff"
       id="path75" />
    <path
       d="m 22.7059,33.753 c 0,-0.062 -0.007,-0.117 -0.007,-0.178 0,-0.309 0.021,-0.611 0.048,-0.913 l -9.387,-0.309 c 0.034,0.371 0.075,0.734 0.117,1.1 l 9.229,0.309 z"
       fill="#ffffff"
       id="path76" />
    <path
       d="m 42.769,39.366 c -0.192,0.309 -0.4,0.6 -0.624,0.892 l 12.79,9.009 c 0.281,-0.24 0.563,-0.494 0.83,-0.748 l -13,-9.154 z"
       fill="#ffffff"
       id="path77" />
    <path
       d="m 41.9728,40.4841 c -0.233,0.281 -0.48,0.549 -0.734,0.81 l 10.993,10.011 c 0.316,-0.206 0.624,-0.419 0.926,-0.631 l -11.185,-10.183 z"
       fill="#ffffff"
       id="path78" />
    <path
       d="m 37.5887,43.675 c -0.336,0.13 -0.679,0.247 -1.036,0.35 l 3.836,11.274 c 0.377,-0.027 0.748,-0.062 1.118,-0.11 l -3.918,-11.521 z"
       fill="#ffffff"
       id="path79" />
    <path
       d="m 38.837,43.095 c -0.318,0.1777 -0.6455,0.338 -0.981,0.48 l 5.551,11.32 c 0.371,-0.075 0.734,-0.158 1.1,-0.247 l -5.67,-11.563 z"
       fill="#ffffff"
       id="path80" />
    <path
       d="m 44.268,35.5371 c -0.069,0.357 -0.151,0.714 -0.247,1.064 l 17.395,4.083 c 0.151,-0.336 0.3,-0.672 0.439,-1.016 l -17.587,-4.121 z"
       fill="#ffffff"
       id="path81" />
    <path
       d="m 44.4028,32.662 c 0.027,0.3 0.048,0.6 0.048,0.913 0,0.062 -0.007,0.117 -0.007,0.178 l 19.089,-0.631 c 0.041,-0.364 0.075,-0.727 0.1,-1.1 l -19.227,0.638 z"
       fill="#ffffff"
       id="path82" />
    <path
       d="m 44.423,34.1299 c -0.021,0.364 -0.055,0.727 -0.11,1.084 l 18.431,1.832 c 0.1,-0.35 0.192,-0.707 0.274,-1.064 l -18.6,-1.853 z"
       fill="#ffffff"
       id="path83" />
    <path
       d="m 43.4279,38.165 c -0.1515,0.3295 -0.3211,0.6503 -0.508,0.961 l 14.5,7.692 c 0.247,-0.281 0.487,-0.563 0.72,-0.851 l -14.7,-7.8 z"
       fill="#ffffff"
       id="path84" />
    <path
       d="m 34.8508,44.3679 c -0.357,0.041 -0.72,0.069 -1.091,0.075 l 0.7,10.622 c 0.364,0.055 0.734,0.11 1.1,0.151 l -0.72,-10.842 z"
       fill="#ffffff"
       id="path85" />
    <path
       d="m 43.9358,36.8889 c -0.1107,0.347 -0.2388,0.6881 -0.384,1.022 l 16.05,6.045 c 0.206,-0.309 0.4,-0.624 0.59,-0.94 l -16.256,-6.12 z"
       fill="#ffffff"
       id="path86" />
    <path
       d="m 41.0326,41.4719 c -0.268,0.247 -0.542,0.487 -0.83,0.707 l 9.174,10.732 c 0.336,-0.165 0.672,-0.336 1,-0.508 l -9.344,-10.924 z"
       fill="#ffffff"
       id="path87" />
    <path
       d="m 23.6049,37.9109 c -0.1463,-0.3335 -0.2745,-0.6747 -0.384,-1.022 l -8.008,3.012 c 0.144,0.336 0.288,0.666 0.446,0.995 l 7.946,-2.992 z"
       fill="#ffffff"
       id="path88" />
    <path
       d="m 24.2359,39.126 c -0.1869,-0.3107 -0.3565,-0.6315 -0.508,-0.961 l -7.452,3.952 c 0.172,0.323 0.357,0.638 0.542,0.947 l 7.424,-3.939 z"
       fill="#ffffff"
       id="path89" />
    <path
       d="m 25.0039,40.258 c -0.2242,-0.2857 -0.4325,-0.5835 -0.624,-0.892 l -6.855,4.83 c 0.206,0.3 0.412,0.6 0.631,0.892 l 6.855,-4.831 z"
       fill="#ffffff"
       id="path90" />
    <path
       d="m 33.383,44.4429 c -0.3649,-8e-4 -0.7294,-0.0259 -1.091,-0.075 l -0.666,10.059 c 0.357,0.1 0.714,0.192 1.077,0.274 l 0.679,-10.265 z"
       fill="#ffffff"
       id="path91" />
    <path
       d="m 22.8361,35.2141 c -0.055,-0.357 -0.089,-0.714 -0.11,-1.084 l -9,0.892 c 0.069,0.357 0.151,0.714 0.233,1.07 l 8.872,-0.885 z"
       fill="#ffffff"
       id="path92" />
    <path
       d="m 23.1349,36.6011 c -0.1033,-0.3495 -0.1858,-0.7047 -0.247,-1.064 l -8.529,2 c 0.11,0.35 0.226,0.693 0.343,1.036 z"
       fill="#ffffff"
       id="path93" />
    <path
       d="m 31.955,44.3199 c -0.364,-0.055 -0.72,-0.124 -1.07,-0.213 l -1.887,9.428 c 0.343,0.137 0.686,0.268 1.036,0.4 l 1.928,-9.608 z"
       fill="#ffffff"
       id="path94" />
    <path
       d="m 25.9098,41.287 c -0.2588,-0.2567 -0.5039,-0.5271 -0.734,-0.8099 l -6.21,5.6539 c 0.233,0.281 0.467,0.556 0.714,0.83 z"
       fill="#ffffff"
       id="path95" />
    <path
       d="m 30.5959,44.025 c -0.35,-0.1 -0.7,-0.22 -1.036,-0.35 l -2.971,8.728 c 0.323,0.172 0.652,0.343 0.981,0.5 l 3.019,-8.878 z"
       fill="#ffffff"
       id="path96" />
    <path
       d="m 29.293,43.572 c -0.336,-0.144 -0.659,-0.309 -0.981,-0.48 l -3.918,7.994 c 0.3,0.206 0.611,0.4 0.926,0.59 z"
       fill="#ffffff"
       id="path97" />
    <path
       d="m 28.079,42.9469 c -0.316,-0.185 -0.618,-0.384 -0.913,-0.6 l -4.769,7.242 c 0.281,0.233 0.57,0.46 0.858,0.679 l 4.817,-7.322 z"
       fill="#ffffff"
       id="path98" />
    <path
       d="M 100.117,47.501 V 31.517 c 0,-3.932 -2.0589,-7.507 -6.1139,-7.507 -4.055,0 -6.354,3.568 -6.354,7.507 v 15.984 h -7.383 v -29.9 h 6.84 l 0.542,3.63 c 1.571,-3.026 5.023,-4.117 7.87,-4.117 3.575,0 7.1429,1.455 8.8379,5.572 0.995,-1.7469 2.456,-3.1821 4.221,-4.1445 1.765,-0.9623 3.763,-1.4137 5.77,-1.3035 8.474,0 12.653,5.208 12.653,14.163 v 16.1 h -7.383 v -16.1 c 0,-3.932 -1.633,-7.267 -5.627,-7.267 -3.994,0 -6.478,3.451 -6.478,7.383 v 15.984 h -7.383 z"
       fill="#ffffff"
       id="path99" />
    <path
       d="m 159.533,14.406 5.448,4.117 -3.753,4.357 c 2.244,2.4173 3.479,5.6015 3.451,8.9 0,5.325 -2.484,8.961 -7.383,11.2 6.354,2.3 7.383,6.779 7.383,9.682 0,8.474 -8.289,12.591 -16.283,12.591 -10.348,0 -16.406,-5.208 -16.1,-13.737 h 7.322 c -0.24,4.179 4.117,6.539 8.776,6.6 4.117,0 8.591,-1.757 8.591,-5.448 0,-3.691 -2.9,-5.874 -8.474,-5.874 -9.867,0 -16.345,-5.688 -16.345,-15.014 0,-10.046 7.987,-15.13 16.345,-15.13 2.36,0 5.627,0.487 7.685,1.88 l 3.328,-4.117 z M 139.558,31.78 c 0,5.2 4.117,8.234 8.961,8.234 4.844,0 8.776,-3.088 8.776,-8.234 0,-5.146 -3.932,-8.3 -8.776,-8.3 -4.844,0 -8.961,2.728 -8.961,8.3 z"
       fill="#ffffff"
       id="path100" />
    <path
       d="M 190.489,47.501 V 31.517 c 0,-3.932 -2.059,-7.507 -6.114,-7.507 -4.055,0 -6.354,3.568 -6.354,7.507 v 15.984 h -7.383 v -29.9 h 6.841 l 0.542,3.63 c 1.571,-3.026 5.023,-4.117 7.87,-4.117 3.575,0 7.143,1.455 8.838,5.572 0.995,-1.7469 2.456,-3.1821 4.221,-4.1445 1.765,-0.9623 3.763,-1.4137 5.77,-1.3035 8.474,0 12.653,5.208 12.653,14.163 v 16.1 h -7.383 v -16.1 c 0,-3.932 -1.633,-7.267 -5.627,-7.267 -3.994,0 -6.478,3.451 -6.478,7.383 v 15.984 h -7.383 z"
       fill="#ffffff"
       id="path101" />
    <path
       d="m 230.092,35.2179 c 0.487,3.692 3.692,6.354 8.9,6.354 2.724,0 6.292,-1.029 7.987,-2.786 l 4.721,4.659 c -3.15,3.266 -8.3,4.844 -12.832,4.844 -10.293,0 -16.4,-6.354 -16.4,-15.919 0,-9.565 6.176,-15.617 15.858,-15.617 9.682,0 16.221,6.176 15.075,18.465 h -23.3 z m 16.217,-6.114 c -0.487,-3.877 -3.506,-5.812 -7.747,-5.812 -3.994,0 -7.267,1.935 -8.351,5.812 z"
       fill="#ffffff"
       id="path102" />
    <path
       d="m 179.443,69.6431 v -6.251 c 0,-1.818 -0.995,-3.2001 -2.882,-3.2001 -0.424,0.0052 -0.843,0.0974 -1.23,0.2709 -0.387,0.1736 -0.735,0.4248 -1.021,0.7381 -0.286,0.3133 -0.505,0.682 -0.643,1.0833 -0.138,0.4013 -0.192,0.8267 -0.159,1.2497 v 6.1 h -2.93 V 57.6701 h 2.642 l 0.192,1.6189 c 0.495,-0.5533 1.1,-0.998 1.775,-1.3063 0.676,-0.3082 1.408,-0.4732 2.15,-0.4847 2.806,0 5.064,2.107 5.064,5.86 v 6.2721 h -2.958 z"
       fill="#ffffff"
       id="path103" />
    <path
       d="m 187.528,64.7229 c 0.192,1.475 1.475,2.546 3.561,2.546 1.164,0.018 2.298,-0.3759 3.2,-1.112 l 1.887,1.866 c -1.396,1.2851 -3.236,1.9787 -5.133,1.935 -4.117,0 -6.567,-2.546 -6.567,-6.368 0,-3.822 2.47,-6.251 6.347,-6.251 3.877,0 6.491,2.47 6.031,7.383 z m 6.491,-2.443 c -0.192,-1.551 -1.407,-2.326 -3.1,-2.326 -0.74,-0.058 -1.477,0.142 -2.086,0.566 -0.61,0.424 -1.053,1.0459 -1.256,1.76 h 6.443 z"
       fill="#ffffff"
       id="path104" />
    <path
       d="m 201.766,57.7041 v 6.251 c 0,1.818 0.995,3.2 2.882,3.2 0.424,-0.0051 0.843,-0.0973 1.23,-0.2709 0.388,-0.1735 0.735,-0.4247 1.021,-0.738 0.287,-0.3133 0.505,-0.6821 0.643,-1.0834 0.138,-0.4013 0.192,-0.8266 0.159,-1.2497 v -6.1 h 2.93 v 11.965 h -2.642 l -0.192,-1.619 c -0.507,0.5709 -1.131,1.0262 -1.829,1.3352 -0.699,0.309 -1.455,0.4644 -2.219,0.4558 -2.855,0 -4.94,-2.155 -4.94,-5.86 v -6.272 h 2.951 z"
       fill="#ffffff"
       id="path105" />
    <path
       d="m 216.327,57.704 0.22,1.379 c 0.343,-0.5728 0.842,-1.0362 1.439,-1.3363 0.596,-0.3001 1.266,-0.4245 1.93,-0.3587 1.13,-0.0134 2.226,0.3924 3.074,1.139 l -1.331,2.566 c -0.287,-0.2637 -0.623,-0.4679 -0.989,-0.601 -0.367,-0.133 -0.756,-0.1921 -1.145,-0.174 -0.404,-0.0351 -0.811,0.0194 -1.191,0.1598 -0.381,0.1403 -0.726,0.363 -1.01,0.6521 -0.285,0.2891 -0.502,0.6374 -0.636,1.0202 -0.134,0.3827 -0.182,0.7904 -0.141,1.1939 v 6.3 h -2.951 v -11.94 h 2.738 z"
       fill="#ffffff"
       id="path106" />
    <path
       d="m 235.705,63.6809 c -0.002,1.2267 -0.367,2.4253 -1.05,3.4448 -0.682,1.0194 -1.651,1.814 -2.784,2.2837 -1.133,0.4696 -2.38,0.5933 -3.584,0.3554 -1.203,-0.2379 -2.309,-0.8267 -3.178,-1.6923 -0.87,-0.8655 -1.463,-1.969 -1.706,-3.1714 -0.244,-1.2024 -0.125,-2.4499 0.339,-3.5852 0.465,-1.1352 1.256,-2.1075 2.272,-2.7943 1.017,-0.6867 2.214,-1.0572 3.44,-1.0647 0.827,-0.0292 1.65,0.1117 2.42,0.4138 0.77,0.3021 1.47,0.7591 2.056,1.3426 0.586,0.5834 1.046,1.281 1.351,2.0495 0.305,0.7685 0.45,1.5915 0.424,2.4181 z m -9.469,0 c -0.036,0.4481 0.021,0.8989 0.168,1.3239 0.147,0.425 0.38,0.815 0.685,1.1454 0.305,0.3304 0.675,0.5941 1.087,0.7745 0.411,0.1803 0.856,0.2735 1.306,0.2735 0.449,0 0.894,-0.0932 1.306,-0.2735 0.412,-0.1804 0.782,-0.4441 1.087,-0.7745 0.305,-0.3304 0.538,-0.7204 0.685,-1.1454 0.146,-0.425 0.203,-0.8758 0.167,-1.3239 0.024,-0.4463 -0.041,-0.8929 -0.193,-1.3135 -0.151,-0.4207 -0.384,-0.8069 -0.687,-1.1361 -0.302,-0.3292 -0.667,-0.5946 -1.073,-0.7808 -0.407,-0.1863 -0.846,-0.2895 -1.293,-0.3036 -0.45,0.0034 -0.894,0.0994 -1.305,0.2821 -0.411,0.1826 -0.781,0.4479 -1.085,0.7795 -0.304,0.3315 -0.537,0.7221 -0.684,1.1474 -0.146,0.4254 -0.204,0.8764 -0.169,1.325 z"
       fill="#ffffff"
       id="path107" />
    <path
       d="m 242.052,54.335 v 3.39 h 3.294 v 2.546 h -3.315 v 5.16 c -0.032,0.2176 -0.015,0.4395 0.05,0.6497 0.064,0.2103 0.175,0.4035 0.323,0.5658 0.149,0.1622 0.332,0.2894 0.535,0.3723 0.204,0.083 0.424,0.1196 0.643,0.1072 0.497,-0.0135 0.985,-0.1379 1.427,-0.364 l 0.823,2.518 c -0.775,0.3231 -1.604,0.4955 -2.443,0.508 -2.594,0.1 -4.289,-1.379 -4.289,-4.357 v -5.16 h -2.23 v -2.546 h 2.23 v -3.074 l 2.957,-0.316 z"
       fill="#ffffff"
       id="path108" />
    <path
       d="m 249.922,64.7229 c 0.192,1.475 1.475,2.546 3.561,2.546 1.164,0.018 2.298,-0.3759 3.2,-1.112 l 1.887,1.866 c -1.396,1.2851 -3.236,1.9787 -5.133,1.935 -4.117,0 -6.567,-2.546 -6.567,-6.368 0,-3.822 2.47,-6.251 6.347,-6.251 3.877,0 6.491,2.47 6.031,7.383 z m 6.491,-2.443 c -0.192,-1.551 -1.407,-2.326 -3.1,-2.326 -0.74,-0.058 -1.477,0.142 -2.086,0.566 -0.61,0.424 -1.053,1.0459 -1.256,1.76 z"
       fill="#ffffff"
       id="path109" />
    <path
       d="m 271.646,68.1131 c -0.592,0.6182 -1.308,1.1055 -2.1,1.4305 -0.792,0.325 -1.644,0.4805 -2.5,0.4565 -3.465,0 -6.347,-2.086 -6.347,-6.32 0,-4.234 2.882,-6.32 6.347,-6.32 0.803,-0.0267 1.602,0.1173 2.345,0.4224 0.743,0.3052 1.412,0.7644 1.964,1.3476 l -1.866,1.962 c -0.655,-0.5984 -1.507,-0.9354 -2.395,-0.947 -0.463,-0.012 -0.923,0.0719 -1.352,0.2466 -0.429,0.1746 -0.817,0.4361 -1.14,0.7681 -0.323,0.3319 -0.574,0.7271 -0.736,1.1607 -0.163,0.4335 -0.234,0.8961 -0.21,1.3586 -0.033,0.4582 0.03,0.9183 0.187,1.3501 0.158,0.4318 0.404,0.8253 0.725,1.1547 0.32,0.3294 0.707,0.5872 1.134,0.7563 0.427,0.1691 0.885,0.2457 1.344,0.2249 0.48,0.0179 0.959,-0.061 1.408,-0.2319 0.449,-0.171 0.859,-0.4305 1.206,-0.7631 l 1.99,1.935 z"
       fill="#ffffff"
       id="path110" />
    <path
       d="m 276.374,52.688 v 6.635 c 0.428,-0.5812 0.992,-1.0485 1.643,-1.3607 0.651,-0.3123 1.369,-0.46 2.09,-0.4303 3.39,0 4.892,2.3 4.892,5.812 v 6.3 h -2.957 v -6.272 c 0,-2.182 -1.139,-3.1 -2.71,-3.1 -0.412,0.0133 -0.816,0.1094 -1.19,0.2826 -0.373,0.1732 -0.708,0.4199 -0.984,0.7254 -0.276,0.3056 -0.488,0.6636 -0.622,1.0528 -0.135,0.3891 -0.189,0.8014 -0.161,1.2122 v 6.1 h -2.958 V 52.688 Z"
       fill="#ffffff"
       id="path111" />
  </g>
</svg>
