<svg width="200" height="50" viewBox="0 0 200 50" fill="none" xmlns="http://www.w3.org/2000/svg">
<path fill-rule="evenodd" clip-rule="evenodd" d="M0 12.5337L21.8085 0L43.617 12.5337V37.4663L21.8085 50L0 37.4663V12.5337Z" fill="#172B72"/>
<path fill-rule="evenodd" clip-rule="evenodd" d="M21.8075 27.7628C23.3688 27.7628 24.6345 26.4957 24.6345 24.9326C24.6345 23.3695 23.3688 22.1024 21.8075 22.1024C20.2462 22.1024 18.9805 23.3695 18.9805 24.9326C18.9805 26.4957 20.2462 27.7628 21.8075 27.7628Z" fill="white"/>
<path fill-rule="evenodd" clip-rule="evenodd" d="M28.0009 27.7628C29.5622 27.7628 30.8279 26.4957 30.8279 24.9326C30.8279 23.3695 29.5622 22.1024 28.0009 22.1024C26.4395 22.1024 25.1738 23.3695 25.1738 24.9326C25.1738 26.4957 26.4395 27.7628 28.0009 27.7628Z" fill="white"/>
<path fill-rule="evenodd" clip-rule="evenodd" d="M15.6161 27.7628C17.1774 27.7628 18.4431 26.4957 18.4431 24.9326C18.4431 23.3695 17.1774 22.1024 15.6161 22.1024C14.0548 22.1024 12.7891 23.3695 12.7891 24.9326C12.7891 26.4957 14.0548 27.7628 15.6161 27.7628Z" fill="white"/>
<path fill-rule="evenodd" clip-rule="evenodd" d="M21.8075 34.097C23.3688 34.097 24.6345 32.8299 24.6345 31.2668C24.6345 29.7038 23.3688 28.4366 21.8075 28.4366C20.2462 28.4366 18.9805 29.7038 18.9805 31.2668C18.9805 32.8299 20.2462 34.097 21.8075 34.097Z" fill="white"/>
<path fill-rule="evenodd" clip-rule="evenodd" d="M28.0009 34.097C29.5622 34.097 30.8279 32.8299 30.8279 31.2668C30.8279 29.7038 29.5622 28.4366 28.0009 28.4366C26.4395 28.4366 25.1738 29.7038 25.1738 31.2668C25.1738 32.8299 26.4395 34.097 28.0009 34.097Z" fill="white"/>
<path fill-rule="evenodd" clip-rule="evenodd" d="M15.6161 34.097C17.1774 34.097 18.4431 32.8299 18.4431 31.2668C18.4431 29.7038 17.1774 28.4366 15.6161 28.4366C14.0548 28.4366 12.7891 29.7038 12.7891 31.2668C12.7891 32.8299 14.0548 34.097 15.6161 34.097Z" fill="white"/>
<path fill-rule="evenodd" clip-rule="evenodd" d="M9.42273 21.5633C10.9841 21.5633 12.2498 20.2962 12.2498 18.7331C12.2498 17.1701 10.9841 15.903 9.42273 15.903C7.86141 15.903 6.5957 17.1701 6.5957 18.7331C6.5957 20.2962 7.86141 21.5633 9.42273 21.5633Z" fill="white"/>
<path fill-rule="evenodd" clip-rule="evenodd" d="M9.42273 27.7628C10.9841 27.7628 12.2498 26.4957 12.2498 24.9326C12.2498 23.3695 10.9841 22.1024 9.42273 22.1024C7.86141 22.1024 6.5957 23.3695 6.5957 24.9326C6.5957 26.4957 7.86141 27.7628 9.42273 27.7628Z" fill="white"/>
<path fill-rule="evenodd" clip-rule="evenodd" d="M9.42273 34.097C10.9841 34.097 12.2498 32.8299 12.2498 31.2668C12.2498 29.7038 10.9841 28.4366 9.42273 28.4366C7.86141 28.4366 6.5957 29.7038 6.5957 31.2668C6.5957 32.8299 7.86141 34.097 9.42273 34.097Z" fill="white"/>
<path fill-rule="evenodd" clip-rule="evenodd" d="M34.1923 21.5633C35.7536 21.5633 37.0193 20.2962 37.0193 18.7331C37.0193 17.1701 35.7536 15.903 34.1923 15.903C32.6309 15.903 31.3652 17.1701 31.3652 18.7331C31.3652 20.2962 32.6309 21.5633 34.1923 21.5633Z" fill="white"/>
<path fill-rule="evenodd" clip-rule="evenodd" d="M34.1923 27.7628C35.7536 27.7628 37.0193 26.4957 37.0193 24.9326C37.0193 23.3695 35.7536 22.1024 34.1923 22.1024C32.6309 22.1024 31.3652 23.3695 31.3652 24.9326C31.3652 26.4957 32.6309 27.7628 34.1923 27.7628Z" fill="white"/>
<path fill-rule="evenodd" clip-rule="evenodd" d="M34.1923 34.097C35.7536 34.097 37.0193 32.8299 37.0193 31.2668C37.0193 29.7038 35.7536 28.4366 34.1923 28.4366C32.6309 28.4366 31.3652 29.7038 31.3652 31.2668C31.3652 32.8299 32.6309 34.097 34.1923 34.097Z" fill="white"/>
<path fill-rule="evenodd" clip-rule="evenodd" d="M21.8075 40.2965C23.3688 40.2965 24.6345 39.0294 24.6345 37.4663C24.6345 35.9032 23.3688 34.6361 21.8075 34.6361C20.2462 34.6361 18.9805 35.9032 18.9805 37.4663C18.9805 39.0294 20.2462 40.2965 21.8075 40.2965Z" fill="white"/>
<path fill-rule="evenodd" clip-rule="evenodd" d="M28.0009 40.2965C29.5622 40.2965 30.8279 39.0294 30.8279 37.4663C30.8279 35.9032 29.5622 34.6361 28.0009 34.6361C26.4395 34.6361 25.1738 35.9032 25.1738 37.4663C25.1738 39.0294 26.4395 40.2965 28.0009 40.2965Z" fill="white"/>
<path fill-rule="evenodd" clip-rule="evenodd" d="M15.6161 40.2965C17.1774 40.2965 18.4431 39.0294 18.4431 37.4663C18.4431 35.9032 17.1774 34.6361 15.6161 34.6361C14.0548 34.6361 12.7891 35.9032 12.7891 37.4663C12.7891 39.0294 14.0548 40.2965 15.6161 40.2965Z" fill="white"/>
<path fill-rule="evenodd" clip-rule="evenodd" d="M21.8075 21.5633C23.3688 21.5633 24.6345 20.2962 24.6345 18.7331C24.6345 17.1701 23.3688 15.903 21.8075 15.903C20.2462 15.903 18.9805 17.1701 18.9805 18.7331C18.9805 20.2962 20.2462 21.5633 21.8075 21.5633Z" fill="white"/>
<path fill-rule="evenodd" clip-rule="evenodd" d="M28.0009 21.5633C29.5622 21.5633 30.8279 20.2962 30.8279 18.7331C30.8279 17.1701 29.5622 15.903 28.0009 15.903C26.4395 15.903 25.1738 17.1701 25.1738 18.7331C25.1738 20.2962 26.4395 21.5633 28.0009 21.5633Z" fill="white"/>
<path fill-rule="evenodd" clip-rule="evenodd" d="M15.6161 21.5633C17.1774 21.5633 18.4431 20.2962 18.4431 18.7331C18.4431 17.1701 17.1774 15.903 15.6161 15.903C14.0548 15.903 12.7891 17.1701 12.7891 18.7331C12.7891 20.2962 14.0548 21.5633 15.6161 21.5633Z" fill="white"/>
<path fill-rule="evenodd" clip-rule="evenodd" d="M21.8075 15.3639C23.3688 15.3639 24.6345 14.0968 24.6345 12.5337C24.6345 10.9706 23.3688 9.70349 21.8075 9.70349C20.2462 9.70349 18.9805 10.9706 18.9805 12.5337C18.9805 14.0968 20.2462 15.3639 21.8075 15.3639Z" fill="white"/>
<path fill-rule="evenodd" clip-rule="evenodd" d="M28.0009 15.3639C29.5622 15.3639 30.8279 14.0968 30.8279 12.5337C30.8279 10.9706 29.5622 9.70349 28.0009 9.70349C26.4395 9.70349 25.1738 10.9706 25.1738 12.5337C25.1738 14.0968 26.4395 15.3639 28.0009 15.3639Z" fill="white"/>
<path fill-rule="evenodd" clip-rule="evenodd" d="M15.6161 15.3639C17.1774 15.3639 18.4431 14.0968 18.4431 12.5337C18.4431 10.9706 17.1774 9.70349 15.6161 9.70349C14.0548 9.70349 12.7891 10.9706 12.7891 12.5337C12.7891 14.0968 14.0548 15.3639 15.6161 15.3639Z" fill="white"/>
<rect x="141.029" y="14.1429" width="9.48961" height="1.06383" fill="#4E4E4D"/>
<path fill-rule="evenodd" clip-rule="evenodd" d="M65.755 6.16217L66.8759 3.23044H70.1961L68.0602 6.16217H65.755ZM67.0239 22.4871C63.048 22.4871 60.7852 20.3779 60.7852 16.3705V7.17456H64.2323V16.1596C64.2323 18.6695 64.9725 19.7662 67.045 19.7662C69.0753 19.7662 69.9635 18.796 69.9635 16.033V7.17456H73.4107V16.2439C73.4107 20.3568 71.1055 22.4871 67.0239 22.4871ZM83.217 19.7662C85.7759 19.7662 87.3832 17.8047 87.3832 14.7675V14.5988C87.3832 11.6671 85.8182 9.66337 83.1747 9.66337C80.5523 9.66337 78.9662 11.5827 78.9662 14.6199V14.7886C78.9662 17.868 80.7426 19.7662 83.217 19.7662ZM83.1535 22.4871C78.4163 22.4871 75.3921 19.2179 75.3921 14.8097V14.641C75.3921 10.1485 78.6912 6.96365 83.1747 6.96365C87.7215 6.96365 90.9572 10.0219 90.9572 14.5566V14.7254C90.9572 19.2179 87.8696 22.4871 83.1535 22.4871ZM99.8753 22.4871C94.9266 22.4871 92.2831 19.4499 92.2831 14.8097V14.641C92.2831 10.0641 95.4976 6.94256 99.7907 6.94256C103.428 6.94256 106.135 8.71425 106.495 12.4264H102.984C102.73 10.6125 101.715 9.64228 99.8119 9.64228C97.4221 9.64228 95.8994 11.4983 95.8994 14.6199V14.7886C95.8994 17.9102 97.3375 19.7241 99.833 19.7241C101.715 19.7241 103.026 18.7749 103.301 16.8345H106.664C106.283 20.5677 103.597 22.4871 99.8753 22.4871ZM108.518 22.255V7.17456H111.944V13.3333H118.014V7.17456H121.44V22.255H118.014V16.033H111.944V22.255H108.518ZM124.31 22.255V7.17456H130.252C133.551 7.17456 135.264 8.52443 135.264 11.0976V11.182C135.264 12.7638 134.503 13.9239 132.811 14.409C134.778 14.8097 135.836 15.9276 135.836 17.9524V18.0367C135.836 20.7997 134.017 22.255 130.527 22.255H124.31ZM127.651 19.8928H129.999C131.69 19.8928 132.452 19.1335 132.452 17.7625V17.6782C132.452 16.2861 131.69 15.569 129.829 15.569H127.651V19.8928ZM127.651 13.3755H129.702C131.352 13.3755 132.008 12.7849 132.008 11.4351V11.3507C132.008 10.0852 131.289 9.51573 129.681 9.51573H127.651V13.3755Z" fill="#4E4E4D"/>
<path fill-rule="evenodd" clip-rule="evenodd" d="M141.186 12.3853L142.938 7.06842H144.511L146.241 12.3853H144.981L144.615 11.2029H142.684L142.319 12.3853H141.186ZM143.654 8.04999L142.945 10.3478H144.354L143.654 8.04999ZM147.803 12.3853L146.021 7.06842H147.296L148.564 11.1509L149.831 7.06842H150.965L149.19 12.3853H147.803Z" fill="#4E4E4D"/>
<path fill-rule="evenodd" clip-rule="evenodd" d="M143.219 16.5813L142.414 15.5476H143.189L143.704 15.9343L144.211 15.5476H144.971L144.136 16.5813H143.219ZM143.733 22.3368C141.989 22.3368 141.057 21.266 141.057 19.6301V19.5706C141.057 17.9569 142.19 16.8564 143.704 16.8564C144.986 16.8564 145.94 17.481 146.067 18.7898H144.829C144.74 18.1503 144.382 17.8082 143.711 17.8082C142.868 17.8082 142.332 18.4626 142.332 19.5632V19.6226C142.332 20.7232 142.839 21.3627 143.718 21.3627C144.382 21.3627 144.844 21.0281 144.941 20.3439H146.127C145.993 21.6601 145.046 22.3368 143.733 22.3368ZM146.785 22.255V16.9382H148.694C149.954 16.9382 150.752 17.4513 150.752 18.5518V18.5816C150.752 19.3847 150.282 19.8085 149.656 19.9944L151.065 22.255H149.782L148.507 20.2027H147.985V22.255H146.785ZM147.985 19.3847H148.664C149.268 19.3847 149.574 19.1319 149.574 18.6188V18.589C149.574 18.0462 149.245 17.8603 148.664 17.8603H147.985V19.3847Z" fill="#4E4E4D"/>
<path fill-rule="evenodd" clip-rule="evenodd" d="M117.578 43.3466V28.2662H122.802C126.482 28.2662 128.575 29.8902 128.575 33.075V33.1594C128.575 36.3442 126.355 37.8628 122.907 37.8628H120.983V43.3466H117.578ZM120.983 35.4795H122.717C124.388 35.4795 125.276 34.678 125.276 33.1805V33.0961C125.276 31.4932 124.346 30.8604 122.717 30.8604H120.983V35.4795ZM130.451 43.3466V28.2662H135.865C139.439 28.2662 141.702 29.7215 141.702 32.843V32.9274C141.702 35.2053 140.369 36.4075 138.593 36.9348L142.59 43.3466H138.953L135.336 37.5254H133.856V43.3466H130.451ZM133.856 35.2053H135.78C137.493 35.2053 138.36 34.4882 138.36 33.0329V32.9485C138.36 31.4088 137.43 30.8815 135.78 30.8815H133.856V35.2053ZM143.112 43.3466L148.082 28.2662H152.544L157.451 43.3466H153.877L152.84 39.9931H147.363L146.327 43.3466H143.112ZM150.112 31.0502L148.103 37.5675H152.1L150.112 31.0502ZM165.227 43.5786C160.278 43.5786 157.529 40.3727 157.529 35.9013V35.7326C157.529 31.1979 160.765 28.0341 165.227 28.0341C168.589 28.0341 171.592 29.5738 171.952 33.307H168.547C168.251 31.5354 167.088 30.7339 165.269 30.7339C162.647 30.7339 161.103 32.6954 161.103 35.7748V35.9435C161.103 38.8541 162.351 40.9422 165.311 40.9422C167.849 40.9422 168.885 39.4869 168.949 37.7574H165.544V35.2686H172.333V36.8715C172.333 40.9 169.753 43.5786 165.227 43.5786ZM180.553 43.5786C176.577 43.5786 174.314 41.4695 174.314 37.4621V28.2662H177.761V37.2512C177.761 39.7611 178.501 40.8578 180.574 40.8578C182.604 40.8578 183.492 39.8876 183.492 37.1246V28.2662H186.94V37.3355C186.94 41.4484 184.634 43.5786 180.553 43.5786ZM189.703 43.3466V28.2662H199.559V30.9237H193.108V34.446H198.269V36.9348H193.108V40.6891H199.897V43.3466H189.703Z" fill="#4E4E4D"/>
<path fill-rule="evenodd" clip-rule="evenodd" d="M60.7246 43.3466V28.2662H64.1718V43.3466H60.7246ZM74.1896 40.8578C76.7485 40.8578 78.3558 38.8963 78.3558 35.8591V35.6904C78.3558 32.7587 76.7908 30.755 74.1473 30.755C71.5249 30.755 69.9387 32.6743 69.9387 35.7115V35.8802C69.9387 38.9596 71.7152 40.8578 74.1896 40.8578ZM74.1261 43.5786C69.3889 43.5786 66.3647 40.3095 66.3647 35.9013V35.7326C66.3647 31.2401 69.6638 28.0552 74.1473 28.0552C78.6941 28.0552 81.9298 31.1135 81.9298 35.6482V35.8169C81.9298 40.3095 78.8422 43.5786 74.1261 43.5786ZM90.8479 43.5786C85.8992 43.5786 83.2557 40.5415 83.2557 35.9013V35.7326C83.2557 31.1557 86.4702 28.0341 90.7633 28.0341C94.4008 28.0341 97.1078 29.8058 97.4673 33.518H93.9567C93.7029 31.7041 92.6878 30.7339 90.7844 30.7339C88.3947 30.7339 86.872 32.5899 86.872 35.7115V35.8802C86.872 39.0018 88.3101 40.8156 90.8056 40.8156C92.6878 40.8156 93.999 39.8665 94.2739 37.9261H97.6365C97.2558 41.6593 94.57 43.5786 90.8479 43.5786ZM99.491 43.3466V28.2662H105.434C108.733 28.2662 110.446 29.616 110.446 32.1892V32.2736C110.446 33.8554 109.684 35.0155 107.993 35.5006C109.959 35.9013 111.017 37.0192 111.017 39.044V39.1283C111.017 41.8913 109.198 43.3466 105.709 43.3466H99.491ZM102.832 40.9844H105.18C106.872 40.9844 107.633 40.2251 107.633 38.8541V38.7698C107.633 37.3777 106.872 36.6606 105.011 36.6606H102.832V40.9844ZM102.832 34.4671H104.884C106.533 34.4671 107.189 33.8765 107.189 32.5267V32.4423C107.189 31.1768 106.47 30.6073 104.863 30.6073H102.832V34.4671Z" fill="#4E4E4D"/>
</svg>
